<svg width="48" height="48" viewBox="0 0 48 48" fill="none" xmlns="http://www.w3.org/2000/svg">
<circle cx="24" cy="24" r="23.625" fill="white" stroke="#ECECEC" stroke-width="0.75"/>
<path d="M31.5 23.25C31.9142 23.25 32.25 23.5858 32.25 24C32.25 24.4142 31.9142 24.75 31.5 24.75V23.25ZM15.9697 24.5303C15.6768 24.2374 15.6768 23.7626 15.9697 23.4697L20.7426 18.6967C21.0355 18.4038 21.5104 18.4038 21.8033 18.6967C22.0962 18.9896 22.0962 19.4645 21.8033 19.7574L17.5607 24L21.8033 28.2426C22.0962 28.5355 22.0962 29.0104 21.8033 29.3033C21.5104 29.5962 21.0355 29.5962 20.7426 29.3033L15.9697 24.5303ZM31.5 24.75H16.5V23.25H31.5V24.75Z" fill="#244873"/>
</svg>
