<svg width="48" height="48" viewBox="0 0 48 48" fill="none" xmlns="http://www.w3.org/2000/svg">
<circle cx="24" cy="24" r="23.625" fill="white" stroke="#ECECEC" stroke-width="0.75"/>
<path d="M16.5 23.25C16.0858 23.25 15.75 23.5858 15.75 24C15.75 24.4142 16.0858 24.75 16.5 24.75V23.25ZM32.0303 24.5303C32.3232 24.2374 32.3232 23.7626 32.0303 23.4697L27.2574 18.6967C26.9645 18.4038 26.4896 18.4038 26.1967 18.6967C25.9038 18.9896 25.9038 19.4645 26.1967 19.7574L30.4393 24L26.1967 28.2426C25.9038 28.5355 25.9038 29.0104 26.1967 29.3033C26.4896 29.5962 26.9645 29.5962 27.2574 29.3033L32.0303 24.5303ZM16.5 24.75H31.5V23.25H16.5V24.75Z" fill="#244873"/>
</svg>
