<svg width="72" height="72" viewBox="0 0 72 72" fill="none" xmlns="http://www.w3.org/2000/svg">
<circle cx="36" cy="36" r="36" fill="#26C818"/>
<path d="M32.1941 44.4455C31.4131 43.6644 31.4131 42.3981 32.1941 41.6171L45.4676 28.3436C46.2487 27.5625 47.515 27.5625 48.296 28.3436C49.0771 29.1246 49.0771 30.391 48.296 31.172L35.0225 44.4455C34.2415 45.2265 32.9752 45.2265 32.1941 44.4455Z" fill="white"/>
<path d="M23.7088 33.1318C24.4899 32.3507 25.7562 32.3507 26.5373 33.1318L35.0225 41.6171C35.8036 42.3981 35.8036 43.6644 35.0225 44.4455C34.2415 45.2265 32.9752 45.2265 32.1941 44.4455L23.7088 35.9602C22.9278 35.1792 22.9278 33.9128 23.7088 33.1318Z" fill="white"/>
</svg>
