<svg width="27" height="26" viewBox="0 0 27 26" fill="none" xmlns="http://www.w3.org/2000/svg">
<path d="M20.1733 12L21.8533 10.32C22.44 9.73333 23.1867 9.41333 24 9.33333V8L16 0H2.66667C1.18667 0 0 1.18667 0 2.66667V21.3333C0 22.0406 0.280951 22.7189 0.781048 23.219C1.28115 23.719 1.95942 24 2.66667 24H10.6667V21.5067L10.84 21.3333H2.66667V2.66667H12V12H20.1733ZM14.6667 2L22 9.33333H14.6667V2ZM21.5067 14.44L24.2267 17.16L16.0533 25.3333H13.3333V22.6133L21.5067 14.44ZM26.4667 14.92L25.16 16.2267L22.44 13.5067L23.7467 12.2C24 11.9333 24.44 11.9333 24.7067 12.2L26.4667 13.96C26.7333 14.2267 26.7333 14.6667 26.4667 14.92Z" fill="black"/>
</svg>
