<svg width="28" height="28" viewBox="0 0 28 28" fill="none" xmlns="http://www.w3.org/2000/svg">
<path d="M2 4.66667C2 3.95942 2.28095 3.28115 2.78105 2.78105C3.28115 2.28095 3.95942 2 4.66667 2H23.3333C24.0406 2 24.7189 2.28095 25.219 2.78105C25.719 3.28115 26 3.95942 26 4.66667V23.3333C26 24.0406 25.719 24.7189 25.219 25.219C24.7189 25.719 24.0406 26 23.3333 26H4.66667C3.95942 26 3.28115 25.719 2.78105 25.219C2.28095 24.7189 2 24.0406 2 23.3333V4.66667Z" stroke="#04172E" stroke-width="2.66667" stroke-linecap="round" stroke-linejoin="round"/>
<path d="M11.334 19.3307V8.66406H14.89C15.8713 8.66406 16.6673 9.8574 16.6673 11.3307C16.6673 12.8041 15.8713 13.9974 14.89 13.9974H11.334" stroke="#04172E" stroke-width="2.66667" stroke-linecap="round" stroke-linejoin="round"/>
</svg>
