<svg width="24" height="23" viewBox="0 0 24 23" fill="none" xmlns="http://www.w3.org/2000/svg">
<path d="M13.125 1.88793V3.78448H14.6025C15.0585 3.78448 15.507 3.90586 15.903 4.13497L17.8381 5.25166C17.8961 5.28503 17.9581 5.30172 18.0241 5.30172H21.3751C21.6735 5.30172 21.9596 5.42161 22.1706 5.63502C22.3816 5.84842 22.5001 6.13786 22.5001 6.43966C22.5001 6.74145 22.3816 7.03089 22.1706 7.24429C21.9596 7.4577 21.6735 7.57759 21.3751 7.57759H20.7346L23.9011 14.6965C23.9947 14.9071 24.0227 15.1415 23.9815 15.3686C23.9402 15.5957 23.8316 15.8047 23.6701 15.9679L22.8751 15.1638L23.6686 15.9694L23.6671 15.9725L23.6641 15.9755L23.6551 15.9846L23.6461 15.9922L23.6311 16.0074L23.5636 16.0681C23.2466 16.3361 22.9036 16.5637 22.5346 16.7508C21.8341 17.1059 20.8201 17.4397 19.5001 17.4397C18.4494 17.4521 17.4103 17.2162 16.4656 16.7508C16.0973 16.5648 15.7519 16.3357 15.4365 16.0681L15.369 16.0074L15.345 15.9846L15.336 15.9755L15.33 15.9694V15.9679C15.1686 15.8047 15.06 15.5957 15.0187 15.3686C14.9774 15.1415 15.0055 14.9071 15.099 14.6965L18.2671 7.57759H18.0241C17.5666 7.57759 17.1181 7.45772 16.7221 7.2271L14.787 6.11041C14.7304 6.07764 14.6663 6.06038 14.601 6.06034H13.125V20.4741H16.8751C17.1734 20.4741 17.4596 20.594 17.6706 20.8074C17.8815 21.0208 18.0001 21.3103 18.0001 21.6121C18.0001 21.9139 17.8815 22.2033 17.6706 22.4167C17.4596 22.6301 17.1734 22.75 16.8751 22.75H7.12494C6.82657 22.75 6.54042 22.6301 6.32944 22.4167C6.11846 22.2033 5.99993 21.9139 5.99993 21.6121C5.99993 21.3103 6.11846 21.0208 6.32944 20.8074C6.54042 20.594 6.82657 20.4741 7.12494 20.4741H10.875V6.06034H9.39897C9.33372 6.06038 9.26961 6.07764 9.21297 6.11041L7.27945 7.22862C6.88194 7.45621 6.43343 7.57759 5.97593 7.57759H5.73293L8.90096 14.6965C8.99454 14.9071 9.02256 15.1415 8.9813 15.3686C8.94003 15.5957 8.83145 15.8047 8.66996 15.9679L7.87495 15.1638L8.66846 15.9694L8.66696 15.9725L8.66396 15.9755L8.65496 15.9846L8.63096 16.0074L8.56346 16.0681C8.24646 16.3361 7.90345 16.5637 7.53445 16.7508C6.83394 17.1059 5.81993 17.4397 4.49991 17.4397C3.44918 17.4521 2.41009 17.2162 1.46538 16.7508C1.0971 16.5648 0.751721 16.3357 0.436365 16.0681L0.368864 16.0074L0.344864 15.9846L0.335864 15.9755L0.329864 15.9694V15.9679C0.168375 15.8047 0.0597896 15.5957 0.0185296 15.3686C-0.0227305 15.1415 0.00528703 14.9071 0.0988611 14.6965L3.2669 7.57759H2.62489C2.32652 7.57759 2.04037 7.4577 1.82939 7.24429C1.61841 7.03089 1.49988 6.74145 1.49988 6.43966C1.49988 6.13786 1.61841 5.84842 1.82939 5.63502C2.04037 5.42161 2.32652 5.30172 2.62489 5.30172H5.97593C6.04169 5.30195 6.10635 5.28469 6.16343 5.25166L8.09545 4.13345C8.49296 3.90586 8.94146 3.78448 9.39897 3.78448H10.875V1.88793C10.875 1.58613 10.9935 1.2967 11.2045 1.08329C11.4155 0.869889 11.7016 0.75 12 0.75C12.2984 0.75 12.5845 0.869889 12.7955 1.08329C13.0065 1.2967 13.125 1.58613 13.125 1.88793ZM17.5426 14.7496C17.9701 14.9544 18.6196 15.1638 19.5001 15.1638C20.3806 15.1638 21.0301 14.9544 21.4576 14.7496L19.5001 10.3496L17.5426 14.7496ZM2.54239 14.7496C2.96989 14.9544 3.6194 15.1638 4.49991 15.1638C5.38042 15.1638 6.02993 14.9544 6.45744 14.7496L4.49991 10.3496L2.54239 14.7496Z" fill="black"/>
</svg>
