<svg width="28" height="22" viewBox="0 0 28 22" fill="none" xmlns="http://www.w3.org/2000/svg">
<path d="M3.33268 21.6693C2.59935 21.6693 1.97179 21.4084 1.45002 20.8866C0.928238 20.3648 0.666905 19.7368 0.666016 19.0026V3.0026C0.666016 2.26927 0.927349 1.64172 1.45002 1.11994C1.97268 0.598159 2.60024 0.336826 3.33268 0.335938H11.3327L13.9993 3.0026H24.666C25.3993 3.0026 26.0273 3.26394 26.55 3.7866C27.0727 4.30927 27.3336 4.93683 27.3327 5.66927V19.0026C27.3327 19.7359 27.0718 20.3639 26.55 20.8866C26.0282 21.4093 25.4002 21.6702 24.666 21.6693H3.33268ZM3.33268 19.0026H24.666V5.66927H12.8993L10.2327 3.0026H3.33268V19.0026Z" fill="#04172E"/>
</svg>
