<svg width="24" height="24" viewBox="0 0 24 24" fill="none" xmlns="http://www.w3.org/2000/svg">
<path d="M10.9854 17.6945C11.0902 17.799 11.1735 17.9232 11.2302 18.06C11.287 18.1967 11.3162 18.3433 11.3162 18.4914C11.3162 18.6394 11.287 18.7861 11.2302 18.9228C11.1735 19.0595 11.0902 19.1837 10.9854 19.2883L10.5054 19.7683C9.99583 20.2797 9.38996 20.685 8.7228 20.9608C8.05563 21.2366 7.34041 21.3775 6.61848 21.3751C5.5313 21.3755 4.46843 21.0534 3.56436 20.4495C2.66028 19.8457 1.95562 18.9872 1.53952 17.9828C1.12343 16.9784 1.01459 15.8732 1.22679 14.8069C1.43899 13.7406 1.96268 12.7612 2.73161 11.9926L5.98942 8.73482C6.68236 8.04198 7.54789 7.54695 8.4964 7.30096C9.44492 7.05498 10.4419 7.06698 11.3843 7.33574C12.3266 7.60449 13.1799 8.12023 13.856 8.82955C14.532 9.53887 15.0062 10.416 15.2294 11.3701C15.2664 11.5152 15.274 11.6662 15.2519 11.8143C15.2298 11.9623 15.1783 12.1045 15.1005 12.2324C15.0228 12.3603 14.9202 12.4714 14.799 12.5592C14.6777 12.647 14.5401 12.7097 14.3943 12.7436C14.2485 12.7776 14.0974 12.7821 13.9498 12.7569C13.8023 12.7317 13.6612 12.6772 13.5349 12.5968C13.4087 12.5164 13.2997 12.4116 13.2145 12.2885C13.1292 12.1655 13.0694 12.0266 13.0385 11.8801C12.906 11.3169 12.6256 10.7993 12.226 10.3808C11.8265 9.96225 11.3225 9.65803 10.766 9.49956C10.2096 9.34109 9.62088 9.33412 9.06083 9.47937C8.50077 9.62462 7.98967 9.91682 7.58036 10.3258L4.32255 13.5836C3.86843 14.0373 3.55907 14.6155 3.43359 15.2451C3.30812 15.8747 3.37216 16.5273 3.61762 17.1205C3.86308 17.7137 4.27893 18.2207 4.81258 18.5776C5.34623 18.9344 5.97372 19.1249 6.61567 19.1251C7.04222 19.1264 7.46478 19.043 7.85888 18.8798C8.25298 18.7167 8.6108 18.4769 8.91161 18.1745L9.39067 17.6945C9.49521 17.5895 9.61946 17.5061 9.75629 17.4493C9.89312 17.3924 10.0398 17.3631 10.188 17.3631C10.3362 17.3631 10.4829 17.3924 10.6197 17.4493C10.7566 17.5061 10.8808 17.5895 10.9854 17.6945ZM21.265 4.23482C20.2339 3.20405 18.8357 2.625 17.3777 2.625C15.9197 2.625 14.5215 3.20405 13.4904 4.23482L13.0113 4.71388C12.8 4.92522 12.6812 5.21187 12.6812 5.51075C12.6812 5.80964 12.8 6.09628 13.0113 6.30763C13.2226 6.51897 13.5093 6.6377 13.8082 6.6377C14.1071 6.6377 14.3937 6.51897 14.605 6.30763L15.085 5.82763C15.6942 5.21846 16.5204 4.87623 17.3819 4.87623C18.2434 4.87623 19.0696 5.21846 19.6788 5.82763C20.288 6.4368 20.6302 7.26301 20.6302 8.1245C20.6302 8.986 20.288 9.81221 19.6788 10.4214L16.4154 13.6745C16.1145 13.9769 15.7567 14.2167 15.3626 14.3798C14.9685 14.543 14.546 14.6264 14.1194 14.6251C13.3877 14.6246 12.6776 14.3769 12.1043 13.9222C11.531 13.4675 11.1281 12.8325 10.961 12.1201C10.8934 11.8295 10.713 11.5776 10.4597 11.4199C10.2063 11.2622 9.90071 11.2116 9.61005 11.2792C9.31939 11.3468 9.0675 11.5271 8.90979 11.7805C8.75208 12.0338 8.70148 12.3395 8.76911 12.6301C9.0514 13.8366 9.73296 14.9123 10.7033 15.6828C11.6736 16.4533 12.8757 16.8735 14.1147 16.8751H14.1194C14.8417 16.8771 15.5572 16.7359 16.2245 16.4596C16.8918 16.1833 17.4978 15.7774 18.0072 15.2654L21.265 12.0076C21.7755 11.4973 22.1804 10.8914 22.4567 10.2246C22.7329 9.55774 22.8751 8.84302 22.8751 8.12122C22.8751 7.39943 22.7329 6.6847 22.4567 6.01787C22.1804 5.35103 21.7755 4.74515 21.265 4.23482Z" fill="#244873"/>
</svg>
