<svg width="41" height="41" viewBox="0 0 41 41" fill="none" xmlns="http://www.w3.org/2000/svg">
<g clip-path="url(#clip0_2099_14378)">
<path d="M20.4994 36.9168C29.7042 36.9168 37.1661 29.4549 37.1661 20.2502C37.1661 11.0454 29.7042 3.5835 20.4994 3.5835C11.2947 3.5835 3.83276 11.0454 3.83276 20.2502C3.83276 29.4549 11.2947 36.9168 20.4994 36.9168Z" fill="white"/>
<path d="M31.6161 19.2793C31.6161 14.3001 26.6244 10.2501 20.4901 10.2501C14.3557 10.2501 9.36401 14.3012 9.36401 19.2793C9.36401 23.7428 13.3223 27.4803 18.6692 28.1876C19.0317 28.2657 19.5244 28.4262 19.6494 28.7366C19.7619 29.0178 19.7223 29.4585 19.6859 29.7428C19.6859 29.7428 19.5557 30.5282 19.5276 30.6949C19.4786 30.9762 19.3036 31.7949 20.4911 31.2949C21.6786 30.7949 26.8984 27.522 29.2328 24.8355C30.8453 23.0668 31.6182 21.273 31.6182 19.2803L31.6161 19.2793Z" fill="#133155"/>
<path d="M27.9135 22.1541C28.0312 22.1541 28.126 22.0593 28.126 21.9416V21.152C28.126 21.0353 28.0302 20.9395 27.9135 20.9395H25.7895V20.1197H27.9135C28.0312 20.1197 28.126 20.0249 28.126 19.9072V19.1186C28.126 19.002 28.0302 18.9061 27.9135 18.9061H25.7895V18.0863H27.9135C28.0312 18.0863 28.126 17.9916 28.126 17.8738V17.0853C28.126 16.9686 28.0302 16.8728 27.9135 16.8728H24.7875C24.6697 16.8728 24.575 16.9676 24.575 17.0853V17.0895V21.9374V21.9416C24.575 22.0593 24.6697 22.1541 24.7875 22.1541H27.9135Z" fill="white"/>
<path d="M16.351 22.1541C16.4687 22.1541 16.5635 22.0593 16.5635 21.9416V21.152C16.5635 21.0353 16.4677 20.9395 16.351 20.9395H14.227V17.0853C14.227 16.9686 14.1312 16.8728 14.0145 16.8728H13.225C13.1072 16.8728 13.0125 16.9676 13.0125 17.0853V21.9374V21.9416C13.0125 22.0593 13.1072 22.1541 13.225 22.1541H16.351Z" fill="white"/>
<path d="M18.2322 16.8728H17.4437C17.3263 16.8728 17.2312 16.9679 17.2312 17.0853V21.9405C17.2312 22.0579 17.3263 22.153 17.4437 22.153H18.2322C18.3496 22.153 18.4447 22.0579 18.4447 21.9405V17.0853C18.4447 16.9679 18.3496 16.8728 18.2322 16.8728Z" fill="white"/>
<path d="M23.6039 16.8728H22.8143C22.6966 16.8728 22.6018 16.9676 22.6018 17.0853V19.9697L20.3799 16.9697C20.3747 16.9624 20.3684 16.9551 20.3632 16.9478C20.3632 16.9478 20.3632 16.9478 20.3622 16.9468C20.358 16.9426 20.3539 16.9374 20.3497 16.9332C20.3486 16.9322 20.3466 16.9311 20.3455 16.9301C20.3414 16.927 20.3382 16.9238 20.3341 16.9207C20.332 16.9197 20.3299 16.9176 20.3278 16.9166C20.3247 16.9134 20.3205 16.9113 20.3164 16.9093C20.3143 16.9082 20.3122 16.9061 20.3101 16.9051C20.3059 16.903 20.3028 16.9009 20.2987 16.8988C20.2966 16.8978 20.2945 16.8968 20.2924 16.8957C20.2882 16.8936 20.2841 16.8916 20.2799 16.8905C20.2778 16.8905 20.2757 16.8884 20.2726 16.8884C20.2684 16.8874 20.2643 16.8853 20.2601 16.8843C20.258 16.8843 20.2549 16.8832 20.2528 16.8822C20.2486 16.8822 20.2445 16.8801 20.2403 16.8791C20.2372 16.8791 20.2341 16.8791 20.2309 16.878C20.2268 16.878 20.2236 16.877 20.2195 16.877C20.2153 16.877 20.2122 16.877 20.208 16.877C20.2059 16.877 20.2028 16.877 20.2007 16.877H19.4164C19.2986 16.877 19.2039 16.9718 19.2039 17.0895V21.9457C19.2039 22.0634 19.2986 22.1582 19.4164 22.1582H20.2059C20.3236 22.1582 20.4184 22.0634 20.4184 21.9457V19.0624L22.6424 22.0666C22.658 22.0884 22.6768 22.1061 22.6976 22.1197C22.6976 22.1197 22.6997 22.1207 22.6997 22.1218C22.7039 22.1249 22.708 22.127 22.7132 22.1301C22.7153 22.1311 22.7174 22.1322 22.7195 22.1332C22.7226 22.1353 22.7268 22.1363 22.7299 22.1384C22.733 22.1405 22.7372 22.1416 22.7403 22.1426C22.7424 22.1426 22.7445 22.1447 22.7466 22.1447C22.7518 22.1468 22.7559 22.1478 22.7611 22.1488C22.7611 22.1488 22.7632 22.1488 22.7643 22.1488C22.782 22.153 22.8007 22.1561 22.8195 22.1561H23.6039C23.7216 22.1561 23.8164 22.0613 23.8164 21.9436V17.0874C23.8164 16.9697 23.7216 16.8749 23.6039 16.8749V16.8728Z" fill="white"/>
</g>
<defs>
<clipPath id="clip0_2099_14378">
<rect width="33.3333" height="33.3333" fill="white" transform="translate(3.83337 3.58337)"/>
</clipPath>
</defs>
</svg>
