<svg width="809" height="455" viewBox="0 0 809 455" fill="none" xmlns="http://www.w3.org/2000/svg">
<rect x="0.5" y="0.531128" width="808" height="454" fill="#EAF4FF"/>
<path d="M383.5 254.531C381.85 254.531 380.438 253.944 379.264 252.77C378.09 251.596 377.502 250.183 377.5 248.531V206.531C377.5 204.881 378.088 203.469 379.264 202.295C380.44 201.121 381.852 200.533 383.5 200.531H425.5C427.15 200.531 428.563 201.119 429.739 202.295C430.915 203.471 431.502 204.883 431.5 206.531V248.531C431.5 250.181 430.913 251.594 429.739 252.77C428.565 253.946 427.152 254.533 425.5 254.531H383.5ZM389.5 242.531H419.5C420.1 242.531 420.55 242.256 420.85 241.706C421.15 241.156 421.1 240.631 420.7 240.131L412.45 229.106C412.15 228.706 411.75 228.506 411.25 228.506C410.75 228.506 410.35 228.706 410.05 229.106L402.25 239.531L396.7 232.106C396.4 231.706 396 231.506 395.5 231.506C395 231.506 394.6 231.706 394.3 232.106L388.3 240.131C387.9 240.631 387.85 241.156 388.15 241.706C388.45 242.256 388.9 242.531 389.5 242.531Z" fill="#5D85B4"/>
</svg>
